<svg width="36" height="36" viewBox="0 0 36 36" fill="none" xmlns="http://www.w3.org/2000/svg">
<path opacity="0.2" d="M13.5 33.75L15.75 22.5L6.75 19.125L22.5 2.25L20.25 13.5L29.25 16.875L13.5 33.75Z" fill="black"/>
<path d="M30.3455 16.6176C30.3029 16.4373 30.2164 16.2703 30.0938 16.1315C29.9711 15.9926 29.8161 15.8862 29.6424 15.8217L21.541 12.7828L23.6025 2.47076C23.6492 2.23117 23.6167 1.98289 23.5099 1.76339C23.4031 1.5439 23.2278 1.36509 23.0105 1.25396C22.7931 1.14283 22.5456 1.10541 22.3051 1.14734C22.0646 1.18926 21.8443 1.30826 21.6774 1.48639L5.92739 18.3614C5.79947 18.4962 5.70693 18.6606 5.65804 18.8398C5.60915 19.0191 5.60543 19.2077 5.64722 19.3888C5.689 19.5699 5.77499 19.7377 5.8975 19.8775C6.02 20.0172 6.17522 20.1244 6.34927 20.1895L14.4535 23.2284L12.3975 33.5292C12.3509 33.7688 12.3834 34.0171 12.4902 34.2366C12.597 34.4561 12.7723 34.6349 12.9896 34.746C13.207 34.8571 13.4545 34.8946 13.695 34.8526C13.9355 34.8107 14.1558 34.6917 14.3227 34.5136L30.0727 17.6386C30.1983 17.5038 30.2889 17.3401 30.3364 17.1621C30.384 16.9841 30.3871 16.7971 30.3455 16.6176ZM15.3802 30.0937L16.8525 22.7278C16.9052 22.4666 16.8635 22.1951 16.7347 21.9618C16.606 21.7284 16.3985 21.5484 16.1494 21.4537L8.7188 18.6623L20.6185 5.91326L19.1475 13.2792C19.0949 13.5404 19.1366 13.8119 19.2654 14.0452C19.3941 14.2785 19.6016 14.4586 19.8507 14.5533L27.2757 17.3376L15.3802 30.0937Z" fill="black"/>
</svg>
